<?xml version="1.0" encoding="UTF-8"?>
<svg xmlns="http://www.w3.org/2000/svg" version="1.1" viewBox="0 0 192 192">
  <defs>
    <style>
      .cls-1 {
        stroke: #fff;
        stroke-miterlimit: 10;
      }

      .cls-1, .cls-2 {
        fill: none;
      }

      .cls-3 {
        fill: #36a2eb;
      }

      .cls-4 {
        opacity: .6;
      }

      .cls-4, .cls-5 {
        fill: #e7e9ed;
      }

      .cls-4, .cls-6 {
        isolation: isolate;
      }

      .cls-6 {
        fill: #fe6184;
        opacity: .8;
      }

      .cls-7 {
        fill: #ffce56;
      }
    </style>
  </defs>
  <!-- Generator: Adobe Illustrator 28.6.0, SVG Export Plug-In . SVG Version: 1.2.0 Build 709)  -->
  <g>
    <g id="Layer_1">
      <g>
        <path class="cls-3" d="M161.3,96.6c-22.4.4-17.7,14.6-33.5,18.2-16,3.6-18.5-39.1-34.6-39.1s-19.6,41.5-39.6,70l-.6.8,43,24.8,65.2-37.7v-37.1h0Z"/>
        <path class="cls-7" d="M161.3,95.3c-7.5-9.6-12.6-20.7-23.5-20.7-19.3,0-14.2,31.5-35.6,31.5s-23.6-33.9-47.8-2c-7.7,10.2-13.9,21.5-18.8,32.2l60.5,34.9,65.2-37.7v-38.4.2Z"/>
        <path class="cls-6" d="M30.8,108.3c7.3-20.3,10.5-36.8,24.5-36.8,21.4,0,26.5,60,44.8,53.9s16.3-38.7,44.8-38.7,11,3.3,16.4,8.7v38.1l-65.2,37.7-65.2-37.7v-25.3h0Z"/>
      </g>
      <polygon class="cls-2" points="69 41 69 151 96 166.6 118.9 153.4 118.9 38.6 96 25.4 69 41"/>
      <polygon class="cls-4" points="157.2 131.3 157.2 60.7 118.9 38.6 118.9 153.4 157.2 131.3"/>
      <polygon class="cls-4" points="34.8 60.7 34.8 131.3 69 151 69 41 34.8 60.7"/>
      <line class="cls-1" x1="118.9" y1="34.3" x2="118.9" y2="158.4"/>
      <line class="cls-1" x1="69" y1="35.5" x2="69" y2="153.4"/>
      <path class="cls-5" d="M96,176l-69.3-40V56L96,16l69.3,40v80l-69.3,40ZM34.8,131.3l61.2,35.3,61.2-35.3V60.7l-61.2-35.3-61.2,35.3v70.6Z"/>
    </g>
  </g>
</svg>